<svg viewBox="0 0 1000 1000" xmlns="http://www.w3.org/2000/svg">
<circle cx="500" cy="500" r="100" fill="green" />
<circle cx="50" cy="50" r="200" fill="pink" />
<rect x="200" y="200" width="500" height="200" rx="0" fill="yellow" />
<line x1="200" y1="200" x2="500" y2="200" stroke-width="3" stroke="red" />
<circle cx="948" cy="29" r="60" fill="black" />
<circle cx="515" cy="53" r="47" fill="black" />
<circle cx="761" cy="719" r="91" fill="black" />
<circle cx="77" cy="677" r="54" fill="black" />
<circle cx="262" cy="95" r="73" fill="black" />
<circle cx="84" cy="875" r="44" fill="black" />
<circle cx="320" cy="143" r="41" fill="black" />
<circle cx="524" cy="947" r="88" fill="black" />
<circle cx="260" cy="503" r="52" fill="black" />
<circle cx="692" cy="223" r="82" fill="black" />
<circle cx="245" cy="37" r="45" fill="black" />
<circle cx="602" cy="862" r="87" fill="black" />
<circle cx="653" cy="938" r="25" fill="black" />
<circle cx="960" cy="375" r="35" fill="black" />
<circle cx="730" cy="198" r="55" fill="black" />
<circle cx="74" cy="336" r="91" fill="black" />
<circle cx="62" cy="319" r="12" fill="black" />
<circle cx="416" cy="646" r="77" fill="black" />
<circle cx="616" cy="608" r="7" fill="black" />
<circle cx="143" cy="747" r="37" fill="black" />
<circle cx="788" cy="105" r="87" fill="black" />
<circle cx="408" cy="517" r="58" fill="black" />
<circle cx="718" cy="358" r="51" fill="black" />
<circle cx="738" cy="72" r="18" fill="black" />
<circle cx="551" cy="726" r="57" fill="black" />
<circle cx="297" cy="662" r="80" fill="black" />
<circle cx="220" cy="267" r="35" fill="black" />
<circle cx="117" cy="669" r="73" fill="black" />
<circle cx="152" cy="789" r="5" fill="black" />
<circle cx="901" cy="241" r="43" fill="black" />
<circle cx="380" cy="668" r="23" fill="black" />
<circle cx="916" cy="723" r="14" fill="black" />
<circle cx="222" cy="605" r="57" fill="black" />
<circle cx="536" cy="565" r="71" fill="black" />
<circle cx="653" cy="667" r="19" fill="black" />
<circle cx="331" cy="297" r="67" fill="black" />
<circle cx="963" cy="730" r="88" fill="black" />
<circle cx="298" cy="21" r="25" fill="black" />
<circle cx="557" cy="286" r="97" fill="black" />
<circle cx="290" cy="151" r="41" fill="black" />
<circle cx="534" cy="730" r="71" fill="black" />
<circle cx="986" cy="4" r="65" fill="black" />
<circle cx="762" cy="792" r="84" fill="black" />
<circle cx="428" cy="753" r="50" fill="black" />
<circle cx="245" cy="141" r="49" fill="black" />
<circle cx="325" cy="862" r="10" fill="black" />
<circle cx="859" cy="517" r="94" fill="black" />
<circle cx="671" cy="223" r="11" fill="black" />
<circle cx="778" cy="916" r="77" fill="black" />
<circle cx="835" cy="541" r="71" fill="black" />
<circle cx="593" cy="913" r="86" fill="black" />
<circle cx="358" cy="478" r="57" fill="black" />
<circle cx="958" cy="440" r="16" fill="black" />
<circle cx="155" cy="645" r="75" fill="black" />
<circle cx="29" cy="715" r="8" fill="black" />
<circle cx="633" cy="790" r="75" fill="black" />
<circle cx="6" cy="98" r="41" fill="black" />
<circle cx="78" cy="941" r="32" fill="black" />
<circle cx="29" cy="539" r="67" fill="black" />
<circle cx="702" cy="81" r="91" fill="black" />
<circle cx="481" cy="978" r="77" fill="black" />
<circle cx="784" cy="563" r="1" fill="black" />
<circle cx="712" cy="860" r="89" fill="black" />
<circle cx="872" cy="315" r="73" fill="black" />
<circle cx="691" cy="953" r="13" fill="black" />
<circle cx="380" cy="834" r="2" fill="black" />
<circle cx="778" cy="715" r="34" fill="black" />
<circle cx="469" cy="548" r="82" fill="black" />
<circle cx="290" cy="560" r="38" fill="black" />
<circle cx="573" cy="362" r="16" fill="black" />
<circle cx="494" cy="62" r="54" fill="black" />
<circle cx="589" cy="22" r="28" fill="black" />
<circle cx="674" cy="875" r="59" fill="black" />
<circle cx="393" cy="460" r="90" fill="black" />
<circle cx="350" cy="232" r="17" fill="black" />
<circle cx="470" cy="443" r="72" fill="black" />
<circle cx="702" cy="0" r="14" fill="black" />
<circle cx="352" cy="945" r="26" fill="black" />
<circle cx="113" cy="393" r="5" fill="black" />
<circle cx="477" cy="720" r="48" fill="black" />
<circle cx="102" cy="785" r="46" fill="black" />
<circle cx="19" cy="943" r="26" fill="black" />
<circle cx="857" cy="50" r="72" fill="black" />
<circle cx="894" cy="416" r="35" fill="black" />
<circle cx="448" cy="769" r="94" fill="black" />
<circle cx="728" cy="935" r="88" fill="black" />
<circle cx="126" cy="847" r="96" fill="black" />
<circle cx="924" cy="389" r="24" fill="black" />
<circle cx="253" cy="523" r="43" fill="black" />
<circle cx="786" cy="974" r="92" fill="black" />
<circle cx="644" cy="895" r="55" fill="black" />
<circle cx="771" cy="457" r="46" fill="black" />
<circle cx="537" cy="477" r="84" fill="black" />
<circle cx="879" cy="782" r="34" fill="black" />
<circle cx="158" cy="5" r="0" fill="black" />
<circle cx="211" cy="780" r="52" fill="black" />
<circle cx="638" cy="819" r="86" fill="black" />
<circle cx="226" cy="392" r="51" fill="black" />
<circle cx="764" cy="17" r="85" fill="black" />
<circle cx="823" cy="562" r="16" fill="black" />
</svg>